<svg width="720" height="720" viewBox="0 0 720 720" fill="none" xmlns="http://www.w3.org/2000/svg">
<rect width="720" height="720" fill="#FF4A1C"/>
<path d="M291.367 623.504C418.935 623.504 498.017 545.854 498.017 460.007C498.017 374.16 421.913 316.664 421.913 253.951C421.913 222.587 440.563 209.157 461.446 209.157C488.303 209.157 501.74 232.307 501.74 258.439C501.74 271.124 498.761 289.042 489.809 295.765C537.55 321.897 607.679 301.743 607.679 242.012C607.679 192.729 556.199 158.4 481.601 158.4C381.636 158.4 305.532 220.368 305.532 306.976C305.532 388.352 371.922 433.892 371.922 490.643C371.922 532.456 335.368 555.591 295.819 555.591C256.27 555.591 215.992 532.44 215.992 488.391C215.992 456.281 236.876 449.574 249.568 449.574C271.957 449.574 283.143 458.533 291.351 467.492C301.048 452.555 306.277 436.889 306.277 421.207C306.277 386.861 280.909 357.749 233.913 357.749C177.22 357.716 112.319 395.804 112.319 485.394C112.319 562.298 176.475 623.504 291.367 623.504Z" fill="#FCF5EC"/>
<path d="M251.309 109.299L252.132 113.173C251.347 109.476 251.311 109.307 251.31 109.299L251.319 109.297L251.384 109.283C251.424 109.275 251.481 109.264 251.552 109.25C251.694 109.222 251.895 109.183 252.148 109.137C252.655 109.046 253.372 108.924 254.244 108.8C255.979 108.554 258.375 108.293 260.965 108.244L260.965 108.243C277.091 107.941 311.962 118.067 332.782 157.721L333.27 158.663L333.324 158.767L333.37 158.874C347.679 191.323 348.394 220.65 337.695 244.005C326.995 267.365 305.198 284.043 275.929 291.824L275.93 291.825C275.922 291.827 275.914 291.829 275.906 291.831L275.906 291.83C261.075 295.864 245.86 293.084 233.474 284.132C221.095 275.185 211.775 260.259 208.218 240.354L208.213 240.319C205.049 221.664 207.921 208.41 214.043 198.193C220.057 188.157 228.999 181.461 236.891 175.592C245.053 169.522 251.831 164.485 255.507 157.578C258.983 151.048 259.956 142.177 254.437 127.819C253.072 124.266 251.618 121.061 250.503 118.741C249.947 117.583 249.477 116.652 249.149 116.015C248.985 115.696 248.858 115.451 248.772 115.289C248.729 115.208 248.697 115.147 248.676 115.108C248.665 115.089 248.658 115.074 248.653 115.066C248.651 115.062 248.65 115.058 248.649 115.057L246.128 110.398L251.309 109.299ZM284.36 208.498C275.521 201.197 264.976 201.9 260.401 207.435C255.829 212.966 257.132 223.459 265.973 230.762C274.814 238.064 285.359 237.365 289.931 231.827L289.933 231.826C294.505 226.295 293.202 215.801 284.36 208.498Z" fill="#FCF5EC" stroke="#FF4A1C" stroke-width="7.92"/>
</svg>
